<?xml version="1.0" encoding="UTF-8"?><svg xmlns="http://www.w3.org/2000/svg" xmlns:xlink="http://www.w3.org/1999/xlink" height="486.6" preserveAspectRatio="xMidYMid meet" version="1.0" viewBox="0.0 0.0 650.0 486.6" width="650.0" zoomAndPan="magnify"><defs><clipPath id="a"><path d="M 0 0 L 650 0 L 650 486.558594 L 0 486.558594 Z M 0 0"/></clipPath></defs><g><g id="change1_1"><path d="M 71.789062 386.664062 L 578.222656 386.664062 L 578.222656 99.894531 L 71.789062 99.894531 L 71.789062 386.664062" fill="#eff4f3"/></g><g clip-path="url(#a)" id="change2_1"><path d="M 578.222656 386.664062 L 71.789062 386.664062 L 71.789062 99.894531 L 578.222656 99.894531 Z M 564.203125 452.1875 C 564.203125 457.785156 559.675781 462.316406 554.074219 462.316406 L 515.09375 462.316406 C 509.507812 462.316406 504.976562 457.785156 504.976562 452.1875 L 504.976562 414.140625 C 504.976562 408.542969 509.507812 404.011719 515.09375 404.011719 L 554.074219 404.011719 C 559.675781 404.011719 564.203125 408.542969 564.203125 414.140625 Z M 459.421875 452.1875 C 459.421875 457.785156 454.878906 462.316406 449.289062 462.316406 L 410.296875 462.316406 C 404.710938 462.316406 400.167969 457.785156 400.167969 452.1875 L 400.167969 414.140625 C 400.167969 408.542969 404.710938 404.011719 410.296875 404.011719 L 449.289062 404.011719 C 454.878906 404.011719 459.421875 408.542969 459.421875 414.140625 Z M 354.621094 452.1875 C 354.621094 457.785156 350.078125 462.316406 344.492188 462.316406 L 305.511719 462.316406 C 299.910156 462.316406 295.382812 457.785156 295.382812 452.1875 L 295.382812 414.140625 C 295.382812 408.542969 299.910156 404.011719 305.511719 404.011719 L 344.492188 404.011719 C 350.078125 404.011719 354.621094 408.542969 354.621094 414.140625 Z M 249.839844 452.1875 C 249.839844 457.785156 245.28125 462.316406 239.695312 462.316406 L 200.714844 462.316406 C 195.113281 462.316406 190.585938 457.785156 190.585938 452.1875 L 190.585938 414.140625 C 190.585938 408.542969 195.113281 404.011719 200.714844 404.011719 L 239.695312 404.011719 C 245.28125 404.011719 249.839844 408.542969 249.839844 414.140625 Z M 145.050781 452.1875 C 145.050781 457.785156 140.503906 462.316406 134.917969 462.316406 L 95.921875 462.316406 C 90.339844 462.316406 85.792969 457.785156 85.792969 452.1875 L 85.792969 414.140625 C 85.792969 408.542969 90.339844 404.011719 95.921875 404.011719 L 134.917969 404.011719 C 140.503906 404.011719 145.050781 408.542969 145.050781 414.140625 Z M 85.792969 28.933594 C 85.792969 23.335938 90.339844 18.804688 95.921875 18.804688 L 134.917969 18.804688 C 140.503906 18.804688 145.050781 23.335938 145.050781 28.933594 L 145.050781 66.980469 C 145.050781 72.578125 140.503906 77.109375 134.917969 77.109375 L 95.921875 77.109375 C 90.339844 77.109375 85.792969 72.578125 85.792969 66.980469 Z M 190.585938 28.933594 C 190.585938 23.335938 195.113281 18.804688 200.714844 18.804688 L 239.695312 18.804688 C 245.28125 18.804688 249.839844 23.335938 249.839844 28.933594 L 249.839844 66.980469 C 249.839844 72.578125 245.28125 77.109375 239.695312 77.109375 L 200.714844 77.109375 C 195.113281 77.109375 190.585938 72.578125 190.585938 66.980469 Z M 295.382812 28.933594 C 295.382812 23.335938 299.910156 18.804688 305.511719 18.804688 L 344.492188 18.804688 C 350.078125 18.804688 354.621094 23.335938 354.621094 28.933594 L 354.621094 66.980469 C 354.621094 72.578125 350.078125 77.109375 344.492188 77.109375 L 305.511719 77.109375 C 299.910156 77.109375 295.382812 72.578125 295.382812 66.980469 Z M 400.167969 28.933594 C 400.167969 23.335938 404.710938 18.804688 410.296875 18.804688 L 449.289062 18.804688 C 454.878906 18.804688 459.421875 23.335938 459.421875 28.933594 L 459.421875 66.980469 C 459.421875 72.578125 454.878906 77.109375 449.289062 77.109375 L 410.296875 77.109375 C 404.710938 77.109375 400.167969 72.578125 400.167969 66.980469 Z M 504.976562 28.933594 C 504.976562 23.335938 509.507812 18.804688 515.09375 18.804688 L 554.074219 18.804688 C 559.675781 18.804688 564.203125 23.335938 564.203125 28.933594 L 564.203125 66.980469 C 564.203125 72.578125 559.675781 77.109375 554.074219 77.109375 L 515.09375 77.109375 C 509.507812 77.109375 504.976562 72.578125 504.976562 66.980469 Z M 613.730469 0.00390625 L 36.269531 0.00390625 C 16.277344 0.00390625 0 16.265625 0 36.257812 L 0 450.304688 C 0 470.296875 16.277344 486.558594 36.269531 486.558594 L 613.730469 486.558594 C 633.734375 486.558594 650 470.296875 650 450.304688 L 650 36.257812 C 650 16.265625 633.734375 0.00390625 613.730469 0.00390625" fill="#2a384c"/></g><g id="change3_1"><path d="M 291.667969 294.308594 L 380.054688 243.289062 L 291.667969 192.253906 Z M 291.667969 294.308594" fill="#e75a59"/></g><g id="change3_2"><path d="M 325.011719 158.148438 C 278.0625 158.148438 239.871094 196.339844 239.871094 243.289062 C 239.871094 290.222656 278.0625 328.414062 325.011719 328.414062 C 371.941406 328.414062 410.136719 290.222656 410.136719 243.289062 C 410.136719 196.339844 371.941406 158.148438 325.011719 158.148438 Z M 325.011719 351.976562 C 265.058594 351.976562 216.308594 303.222656 216.308594 243.289062 C 216.308594 183.339844 265.058594 134.589844 325.011719 134.589844 C 384.945312 134.589844 433.710938 183.339844 433.710938 243.289062 C 433.710938 303.222656 384.945312 351.976562 325.011719 351.976562" fill="#e75a59"/></g></g></svg>