<?xml version="1.0" encoding="UTF-8" standalone="no"?><svg xmlns="http://www.w3.org/2000/svg" xmlns:xlink="http://www.w3.org/1999/xlink" fill="#fb4718" height="288" preserveAspectRatio="xMidYMid meet" version="1" viewBox="0.0 0.0 288.0 288.0" width="288" zoomAndPan="magnify"><g id="change1_1"><path d="M 143.902344 0 C 143.976562 0 144.050781 0 144.125 0.00390625 C 151.28125 0.0351562 157.78125 2.972656 162.496094 7.6875 C 167.230469 12.421875 170.164062 18.96875 170.167969 26.183594 L 170.183594 26.183594 L 170.183594 117.816406 L 261.816406 117.816406 C 269.019531 117.816406 275.566406 120.761719 280.3125 125.503906 C 285.03125 130.226562 287.972656 136.734375 288 143.902344 C 288 143.976562 288 144.050781 288 144.125 C 287.964844 151.28125 285.027344 157.777344 280.3125 162.496094 C 275.578125 167.230469 269.03125 170.164062 261.816406 170.164062 L 261.816406 170.183594 L 170.183594 170.183594 L 170.183594 261.816406 C 170.183594 269.019531 167.238281 275.570312 162.496094 280.3125 C 157.773438 285.03125 151.265625 287.972656 144.097656 287.996094 C 144.023438 288 143.949219 288 143.875 287.996094 C 136.71875 287.964844 130.21875 285.027344 125.503906 280.3125 C 120.773438 275.578125 117.835938 269.03125 117.835938 261.816406 L 117.816406 261.816406 L 117.816406 170.183594 L 26.183594 170.183594 C 18.980469 170.183594 12.433594 167.238281 7.6875 162.496094 C 2.96875 157.773438 0.0273438 151.265625 0.00390625 144.097656 C 0 144.023438 0 143.949219 0.00390625 143.875 C 0.0351562 136.71875 2.972656 130.21875 7.6875 125.503906 C 12.421875 120.769531 18.96875 117.835938 26.183594 117.835938 L 26.183594 117.816406 L 117.816406 117.816406 L 117.816406 26.183594 C 117.816406 18.980469 120.761719 12.429688 125.503906 7.6875 C 130.226562 2.964844 136.734375 0.0273438 143.902344 0" fill="inherit"/></g></svg>