<?xml version="1.0" encoding="UTF-8"?><svg xmlns="http://www.w3.org/2000/svg" xmlns:xlink="http://www.w3.org/1999/xlink" data-name="Layer 2" height="30.0" preserveAspectRatio="xMidYMid meet" version="1.0" viewBox="1.0 1.0 30.0 30.0" width="30.0" zoomAndPan="magnify"><g id="change1_1"><path d="M23.53,9.68H8.47a.52706.52706,0,0,0-.53.53V21.79a.5271.5271,0,0,0,.53.53H23.53a.5271.5271,0,0,0,.53-.53V10.21A.52706.52706,0,0,0,23.53,9.68Zm-9.27,8.04a.97005.97005,0,0,1,0,1.94H10.77a.96883.96883,0,0,1-.96-.97V13.31a.96884.96884,0,0,1,.96-.97h3.49a.97005.97005,0,0,1,0,1.94H11.74v3.44Zm6.97,0a.97005.97005,0,0,1,0,1.94H17.74a.96882.96882,0,0,1-.96-.97V13.31a.96883.96883,0,0,1,.96-.97h3.49a.97005.97005,0,0,1,0,1.94H18.71v3.44Zm2.3-8.04H8.47a.52706.52706,0,0,0-.53.53V21.79a.5271.5271,0,0,0,.53.53H23.53a.5271.5271,0,0,0,.53-.53V10.21A.52706.52706,0,0,0,23.53,9.68Zm-9.27,8.04a.97005.97005,0,0,1,0,1.94H10.77a.96883.96883,0,0,1-.96-.97V13.31a.96884.96884,0,0,1,.96-.97h3.49a.97005.97005,0,0,1,0,1.94H11.74v3.44Zm6.97,0a.97005.97005,0,0,1,0,1.94H17.74a.96882.96882,0,0,1-.96-.97V13.31a.96883.96883,0,0,1,.96-.97h3.49a.97005.97005,0,0,1,0,1.94H18.71v3.44Zm2.3-8.04H8.47a.52706.52706,0,0,0-.53.53V21.79a.5271.5271,0,0,0,.53.53H23.53a.5271.5271,0,0,0,.53-.53V10.21A.52706.52706,0,0,0,23.53,9.68Zm-9.27,8.04a.97005.97005,0,0,1,0,1.94H10.77a.96883.96883,0,0,1-.96-.97V13.31a.96884.96884,0,0,1,.96-.97h3.49a.97005.97005,0,0,1,0,1.94H11.74v3.44Zm6.97,0a.97005.97005,0,0,1,0,1.94H17.74a.96882.96882,0,0,1-.96-.97V13.31a.96883.96883,0,0,1,.96-.97h3.49a.97005.97005,0,0,1,0,1.94H18.71v3.44Zm2.3-8.04H8.47a.52706.52706,0,0,0-.53.53V21.79a.5271.5271,0,0,0,.53.53H23.53a.5271.5271,0,0,0,.53-.53V10.21A.52706.52706,0,0,0,23.53,9.68Zm-9.27,8.04a.97005.97005,0,0,1,0,1.94H10.77a.96883.96883,0,0,1-.96-.97V13.31a.96884.96884,0,0,1,.96-.97h3.49a.97005.97005,0,0,1,0,1.94H11.74v3.44Zm6.97,0a.97005.97005,0,0,1,0,1.94H17.74a.96882.96882,0,0,1-.96-.97V13.31a.96883.96883,0,0,1,.96-.97h3.49a.97005.97005,0,0,1,0,1.94H18.71v3.44Zm2.3-8.04H8.47a.52706.52706,0,0,0-.53.53V21.79a.5271.5271,0,0,0,.53.53H23.53a.5271.5271,0,0,0,.53-.53V10.21A.52706.52706,0,0,0,23.53,9.68Zm-9.27,8.04a.97005.97005,0,0,1,0,1.94H10.77a.96883.96883,0,0,1-.96-.97V13.31a.96884.96884,0,0,1,.96-.97h3.49a.97005.97005,0,0,1,0,1.94H11.74v3.44Zm6.97,0a.97005.97005,0,0,1,0,1.94H17.74a.96882.96882,0,0,1-.96-.97V13.31a.96883.96883,0,0,1,.96-.97h3.49a.97005.97005,0,0,1,0,1.94H18.71v3.44Zm2.3-8.04H8.47a.52706.52706,0,0,0-.53.53V21.79a.5271.5271,0,0,0,.53.53H23.53a.5271.5271,0,0,0,.53-.53V10.21A.52706.52706,0,0,0,23.53,9.68Zm-9.27,8.04a.97005.97005,0,0,1,0,1.94H10.77a.96883.96883,0,0,1-.96-.97V13.31a.96884.96884,0,0,1,.96-.97h3.49a.97005.97005,0,0,1,0,1.94H11.74v3.44Zm6.97,0a.97005.97005,0,0,1,0,1.94H17.74a.96882.96882,0,0,1-.96-.97V13.31a.96883.96883,0,0,1,.96-.97h3.49a.97005.97005,0,0,1,0,1.94H18.71v3.44Zm2.3-8.04H8.47a.52706.52706,0,0,0-.53.53V21.79a.5271.5271,0,0,0,.53.53H23.53a.5271.5271,0,0,0,.53-.53V10.21A.52706.52706,0,0,0,23.53,9.68Zm-9.27,8.04a.97005.97005,0,0,1,0,1.94H10.77a.96883.96883,0,0,1-.96-.97V13.31a.96884.96884,0,0,1,.96-.97h3.49a.97005.97005,0,0,1,0,1.94H11.74v3.44Zm6.97,0a.97005.97005,0,0,1,0,1.94H17.74a.96882.96882,0,0,1-.96-.97V13.31a.96883.96883,0,0,1,.96-.97h3.49a.97005.97005,0,0,1,0,1.94H18.71v3.44Zm2.3-8.04H8.47a.52706.52706,0,0,0-.53.53V21.79a.5271.5271,0,0,0,.53.53H23.53a.5271.5271,0,0,0,.53-.53V10.21A.52706.52706,0,0,0,23.53,9.68Zm-9.27,8.04a.97005.97005,0,0,1,0,1.94H10.77a.96883.96883,0,0,1-.96-.97V13.31a.96884.96884,0,0,1,.96-.97h3.49a.97005.97005,0,0,1,0,1.94H11.74v3.44Zm6.97,0a.97005.97005,0,0,1,0,1.94H17.74a.96882.96882,0,0,1-.96-.97V13.31a.96883.96883,0,0,1,.96-.97h3.49a.97005.97005,0,0,1,0,1.94H18.71v3.44Zm2.3-8.04H8.47a.52706.52706,0,0,0-.53.53V21.79a.5271.5271,0,0,0,.53.53H23.53a.5271.5271,0,0,0,.53-.53V10.21A.52706.52706,0,0,0,23.53,9.68Zm-9.27,8.04a.97005.97005,0,0,1,0,1.94H10.77a.96883.96883,0,0,1-.96-.97V13.31a.96884.96884,0,0,1,.96-.97h3.49a.97005.97005,0,0,1,0,1.94H11.74v3.44Zm6.97,0a.97005.97005,0,0,1,0,1.94H17.74a.96882.96882,0,0,1-.96-.97V13.31a.96883.96883,0,0,1,.96-.97h3.49a.97005.97005,0,0,1,0,1.94H18.71v3.44Zm2.3-8.04H8.47a.52706.52706,0,0,0-.53.53V21.79a.5271.5271,0,0,0,.53.53H23.53a.5271.5271,0,0,0,.53-.53V10.21A.52706.52706,0,0,0,23.53,9.68Zm-9.27,8.04a.97005.97005,0,0,1,0,1.94H10.77a.96883.96883,0,0,1-.96-.97V13.31a.96884.96884,0,0,1,.96-.97h3.49a.97005.97005,0,0,1,0,1.94H11.74v3.44Zm6.97,0a.97005.97005,0,0,1,0,1.94H17.74a.96882.96882,0,0,1-.96-.97V13.31a.96883.96883,0,0,1,.96-.97h3.49a.97005.97005,0,0,1,0,1.94H18.71v3.44Zm2.3-8.04H8.47a.52706.52706,0,0,0-.53.53V21.79a.5271.5271,0,0,0,.53.53H23.53a.5271.5271,0,0,0,.53-.53V10.21A.52706.52706,0,0,0,23.53,9.68Zm-9.27,8.04a.97005.97005,0,0,1,0,1.94H10.77a.96883.96883,0,0,1-.96-.97V13.31a.96884.96884,0,0,1,.96-.97h3.49a.97005.97005,0,0,1,0,1.94H11.74v3.44Zm6.97,0a.97005.97005,0,0,1,0,1.94H17.74a.96882.96882,0,0,1-.96-.97V13.31a.96883.96883,0,0,1,.96-.97h3.49a.97005.97005,0,0,1,0,1.94H18.71v3.44Zm2.3-8.04H8.47a.52706.52706,0,0,0-.53.53V21.79a.5271.5271,0,0,0,.53.53H23.53a.5271.5271,0,0,0,.53-.53V10.21A.52706.52706,0,0,0,23.53,9.68Zm-9.27,8.04a.97005.97005,0,0,1,0,1.94H10.77a.96883.96883,0,0,1-.96-.97V13.31a.96884.96884,0,0,1,.96-.97h3.49a.97005.97005,0,0,1,0,1.94H11.74v3.44Zm6.97,0a.97005.97005,0,0,1,0,1.94H17.74a.96882.96882,0,0,1-.96-.97V13.31a.96883.96883,0,0,1,.96-.97h3.49a.97005.97005,0,0,1,0,1.94H18.71v3.44ZM16,1A15,15,0,1,0,31,16,15.00543,15.00543,0,0,0,16,1ZM26,21.79a2.47535,2.47535,0,0,1-2.47,2.47H8.47A2.47535,2.47535,0,0,1,6,21.79V10.21A2.47531,2.47531,0,0,1,8.47,7.74H23.53A2.47531,2.47531,0,0,1,26,10.21ZM23.53,9.68H8.47a.52706.52706,0,0,0-.53.53V21.79a.5271.5271,0,0,0,.53.53H23.53a.5271.5271,0,0,0,.53-.53V10.21A.52706.52706,0,0,0,23.53,9.68Zm-9.27,8.04a.97005.97005,0,0,1,0,1.94H10.77a.96883.96883,0,0,1-.96-.97V13.31a.96884.96884,0,0,1,.96-.97h3.49a.97005.97005,0,0,1,0,1.94H11.74v3.44Zm6.97,0a.97005.97005,0,0,1,0,1.94H17.74a.96882.96882,0,0,1-.96-.97V13.31a.96883.96883,0,0,1,.96-.97h3.49a.97005.97005,0,0,1,0,1.94H18.71v3.44Zm2.3-8.04H8.47a.52706.52706,0,0,0-.53.53V21.79a.5271.5271,0,0,0,.53.53H23.53a.5271.5271,0,0,0,.53-.53V10.21A.52706.52706,0,0,0,23.53,9.68Zm-9.27,8.04a.97005.97005,0,0,1,0,1.94H10.77a.96883.96883,0,0,1-.96-.97V13.31a.96884.96884,0,0,1,.96-.97h3.49a.97005.97005,0,0,1,0,1.94H11.74v3.44Zm6.97,0a.97005.97005,0,0,1,0,1.94H17.74a.96882.96882,0,0,1-.96-.97V13.31a.96883.96883,0,0,1,.96-.97h3.49a.97005.97005,0,0,1,0,1.94H18.71v3.44Zm2.3-8.04H8.47a.52706.52706,0,0,0-.53.53V21.79a.5271.5271,0,0,0,.53.53H23.53a.5271.5271,0,0,0,.53-.53V10.21A.52706.52706,0,0,0,23.53,9.68Zm-9.27,8.04a.97005.97005,0,0,1,0,1.94H10.77a.96883.96883,0,0,1-.96-.97V13.31a.96884.96884,0,0,1,.96-.97h3.49a.97005.97005,0,0,1,0,1.94H11.74v3.44Zm6.97,0a.97005.97005,0,0,1,0,1.94H17.74a.96882.96882,0,0,1-.96-.97V13.31a.96883.96883,0,0,1,.96-.97h3.49a.97005.97005,0,0,1,0,1.94H18.71v3.44Zm2.3-8.04H8.47a.52706.52706,0,0,0-.53.53V21.79a.5271.5271,0,0,0,.53.53H23.53a.5271.5271,0,0,0,.53-.53V10.21A.52706.52706,0,0,0,23.53,9.68Zm-9.27,8.04a.97005.97005,0,0,1,0,1.94H10.77a.96883.96883,0,0,1-.96-.97V13.31a.96884.96884,0,0,1,.96-.97h3.49a.97005.97005,0,0,1,0,1.94H11.74v3.44Zm6.97,0a.97005.97005,0,0,1,0,1.94H17.74a.96882.96882,0,0,1-.96-.97V13.31a.96883.96883,0,0,1,.96-.97h3.49a.97005.97005,0,0,1,0,1.94H18.71v3.44Zm2.3-8.04H8.47a.52706.52706,0,0,0-.53.53V21.79a.5271.5271,0,0,0,.53.53H23.53a.5271.5271,0,0,0,.53-.53V10.21A.52706.52706,0,0,0,23.53,9.68Zm-9.27,8.04a.97005.97005,0,0,1,0,1.94H10.77a.96883.96883,0,0,1-.96-.97V13.31a.96884.96884,0,0,1,.96-.97h3.49a.97005.97005,0,0,1,0,1.94H11.74v3.44Zm6.97,0a.97005.97005,0,0,1,0,1.94H17.74a.96882.96882,0,0,1-.96-.97V13.31a.96883.96883,0,0,1,.96-.97h3.49a.97005.97005,0,0,1,0,1.94H18.71v3.44Zm2.3-8.04H8.47a.52706.52706,0,0,0-.53.53V21.79a.5271.5271,0,0,0,.53.53H23.53a.5271.5271,0,0,0,.53-.53V10.21A.52706.52706,0,0,0,23.53,9.68Zm-9.27,8.04a.97005.97005,0,0,1,0,1.94H10.77a.96883.96883,0,0,1-.96-.97V13.31a.96884.96884,0,0,1,.96-.97h3.49a.97005.97005,0,0,1,0,1.94H11.74v3.44Zm6.97,0a.97005.97005,0,0,1,0,1.94H17.74a.96882.96882,0,0,1-.96-.97V13.31a.96883.96883,0,0,1,.96-.97h3.49a.97005.97005,0,0,1,0,1.94H18.71v3.44Zm2.3-8.04H8.47a.52706.52706,0,0,0-.53.53V21.79a.5271.5271,0,0,0,.53.53H23.53a.5271.5271,0,0,0,.53-.53V10.21A.52706.52706,0,0,0,23.53,9.68Zm-9.27,8.04a.97005.97005,0,0,1,0,1.94H10.77a.96883.96883,0,0,1-.96-.97V13.31a.96884.96884,0,0,1,.96-.97h3.49a.97005.97005,0,0,1,0,1.94H11.74v3.44Zm6.97,0a.97005.97005,0,0,1,0,1.94H17.74a.96882.96882,0,0,1-.96-.97V13.31a.96883.96883,0,0,1,.96-.97h3.49a.97005.97005,0,0,1,0,1.94H18.71v3.44Zm2.3-8.04H8.47a.52706.52706,0,0,0-.53.53V21.79a.5271.5271,0,0,0,.53.53H23.53a.5271.5271,0,0,0,.53-.53V10.21A.52706.52706,0,0,0,23.53,9.68Zm-9.27,8.04a.97005.97005,0,0,1,0,1.94H10.77a.96883.96883,0,0,1-.96-.97V13.31a.96884.96884,0,0,1,.96-.97h3.49a.97005.97005,0,0,1,0,1.94H11.74v3.44Zm6.97,0a.97005.97005,0,0,1,0,1.94H17.74a.96882.96882,0,0,1-.96-.97V13.31a.96883.96883,0,0,1,.96-.97h3.49a.97005.97005,0,0,1,0,1.94H18.71v3.44Zm2.3-8.04H8.47a.52706.52706,0,0,0-.53.53V21.79a.5271.5271,0,0,0,.53.53H23.53a.5271.5271,0,0,0,.53-.53V10.21A.52706.52706,0,0,0,23.53,9.68Zm-9.27,8.04a.97005.97005,0,0,1,0,1.94H10.77a.96883.96883,0,0,1-.96-.97V13.31a.96884.96884,0,0,1,.96-.97h3.49a.97005.97005,0,0,1,0,1.94H11.74v3.44Zm6.97,0a.97005.97005,0,0,1,0,1.94H17.74a.96882.96882,0,0,1-.96-.97V13.31a.96883.96883,0,0,1,.96-.97h3.49a.97005.97005,0,0,1,0,1.94H18.71v3.44Zm2.3-8.04H8.47a.52706.52706,0,0,0-.53.53V21.79a.5271.5271,0,0,0,.53.53H23.53a.5271.5271,0,0,0,.53-.53V10.21A.52706.52706,0,0,0,23.53,9.68Zm-9.27,8.04a.97005.97005,0,0,1,0,1.94H10.77a.96883.96883,0,0,1-.96-.97V13.31a.96884.96884,0,0,1,.96-.97h3.49a.97005.97005,0,0,1,0,1.94H11.74v3.44Zm6.97,0a.97005.97005,0,0,1,0,1.94H17.74a.96882.96882,0,0,1-.96-.97V13.31a.96883.96883,0,0,1,.96-.97h3.49a.97005.97005,0,0,1,0,1.94H18.71v3.44Zm2.3-8.04H8.47a.52706.52706,0,0,0-.53.53V21.79a.5271.5271,0,0,0,.53.53H23.53a.5271.5271,0,0,0,.53-.53V10.21A.52706.52706,0,0,0,23.53,9.68Zm-9.27,8.04a.97005.97005,0,0,1,0,1.94H10.77a.96883.96883,0,0,1-.96-.97V13.31a.96884.96884,0,0,1,.96-.97h3.49a.97005.97005,0,0,1,0,1.94H11.74v3.44Zm6.97,0a.97005.97005,0,0,1,0,1.94H17.74a.96882.96882,0,0,1-.96-.97V13.31a.96883.96883,0,0,1,.96-.97h3.49a.97005.97005,0,0,1,0,1.94H18.71v3.44Zm2.3-8.04H8.47a.52706.52706,0,0,0-.53.53V21.79a.5271.5271,0,0,0,.53.53H23.53a.5271.5271,0,0,0,.53-.53V10.21A.52706.52706,0,0,0,23.53,9.68Zm-9.27,8.04a.97005.97005,0,0,1,0,1.94H10.77a.96883.96883,0,0,1-.96-.97V13.31a.96884.96884,0,0,1,.96-.97h3.49a.97005.97005,0,0,1,0,1.94H11.74v3.44Zm6.97,0a.97005.97005,0,0,1,0,1.94H17.74a.96882.96882,0,0,1-.96-.97V13.31a.96883.96883,0,0,1,.96-.97h3.49a.97005.97005,0,0,1,0,1.94H18.71v3.44Zm2.3-8.04H8.47a.52706.52706,0,0,0-.53.53V21.79a.5271.5271,0,0,0,.53.53H23.53a.5271.5271,0,0,0,.53-.53V10.21A.52706.52706,0,0,0,23.53,9.68Zm-9.27,8.04a.97005.97005,0,0,1,0,1.94H10.77a.96883.96883,0,0,1-.96-.97V13.31a.96884.96884,0,0,1,.96-.97h3.49a.97005.97005,0,0,1,0,1.94H11.74v3.44Zm6.97,0a.97005.97005,0,0,1,0,1.94H17.74a.96882.96882,0,0,1-.96-.97V13.31a.96883.96883,0,0,1,.96-.97h3.49a.97005.97005,0,0,1,0,1.94H18.71v3.44Z" fill="inherit"/></g></svg>