<?xml version="1.0" encoding="UTF-8" standalone="no"?><svg xmlns="http://www.w3.org/2000/svg" xmlns:xlink="http://www.w3.org/1999/xlink" fill="none" height="22" preserveAspectRatio="xMidYMid meet" style="fill: none" version="1" viewBox="1.0 1.0 22.0 22.0" width="22" zoomAndPan="magnify"><g id="change1_1"><path clip-rule="evenodd" d="M2 1C1.44772 1 1 1.44772 1 2V22C1 22.5523 1.44772 23 2 23H22C22.5523 23 23 22.5523 23 22V2C23 1.44772 22.5523 1 22 1H2Z" fill="#ffde59" fill-rule="evenodd"/></g><g id="change2_1"><path clip-rule="evenodd" d="M5 6C5 5.44772 5.44772 5 6 5H18C18.5523 5 19 5.44772 19 6V8.5H17V7H7V8.5H5V6Z" fill="#ff1616" fill-rule="evenodd"/></g><g id="change2_2"><path clip-rule="evenodd" d="M11 17V6H13V17H15V19H9V17H11Z" fill="#ff1616" fill-rule="evenodd"/></g></svg>