<?xml version="1.0" encoding="UTF-8"?><svg xmlns="http://www.w3.org/2000/svg" xmlns:xlink="http://www.w3.org/1999/xlink" height="64.0" preserveAspectRatio="xMidYMid meet" version="1.0" viewBox="1.0 1.0 64.0 64.0" width="64.0" zoomAndPan="magnify"><g><g id="change1_1"><path d="M53,1H13C6.4,1,1,6.4,1,13v40c0,6.6,5.4,12,12,12h40c6.6,0,12-5.4,12-12V13C65,6.4,59.6,1,53,1z" fill="#dededd"/></g><g><g><g id="change2_4"><path d="M53.6,8.9H12.4c-1.9,0-3.5,1.6-3.5,3.5v41.2c0,1.9,1.6,3.5,3.5,3.5h41.2c1.9,0,3.5-1.6,3.5-3.5V12.4 C57.1,10.5,55.5,8.9,53.6,8.9z" fill="#333"/></g><g id="change3_1"><path d="M53.6,55.6H12.4c-1.1,0-2-0.9-2-2V12.4c0-1.1,0.9-2,2-2h41.2c1.1,0,2,0.9,2,2v41.2 C55.6,54.7,54.7,55.6,53.6,55.6z" fill="#52c4e8"/></g><g><g id="change2_1"><path d="M38.7,55.6H12.4c-1.1,0-2-0.9-2-2v-6.9l10.7-14.1l8.3,10.8l0.9,1.2L38.7,55.6z" fill="#333"/></g><g id="change4_1"><path d="M36.8 55.6L21.2 55.6 21.2 35.1 27.2 43.1 28.5 44.7 28.5 44.7 29.4 45.9z" fill="#fdb814"/></g><g id="change5_1"><path d="M21.2,35.1v20.5h-8.7c-1.1,0-2-0.9-2-2v-4.4L21.2,35.1z" fill="#fecf12"/></g><g id="change2_2"><path d="M36.8 55.6L17.7 55.6 21.2 51 27.2 43.1 28.5 44.7 28.5 44.7 29.4 45.9z" fill="#333" opacity=".15"/></g><g id="change2_3"><path d="M55.6,38.2v15.4c0,1.1-0.9,2-2,2H20.2l1-1.3l7.3-9.6h0l0.9-1.2l15.1-19.8L55.6,38.2z" fill="#333"/></g><g id="change6_1"><path d="M44.5 26.1L44.5 55.6 22.1 55.6 29.4 45.9 30.4 44.7z" fill="#faa31b"/></g><g id="change7_1"><path d="M55.6,40.7v12.9c0,1.1-0.9,2-2,2h-9.1V26.1L55.6,40.7z" fill="#f68c1f"/></g></g><g><g id="change2_5"><circle cx="18.8" cy="18.4" fill="#333" r="5.9"/></g><g id="change5_2"><circle cx="18.8" cy="18.4" fill="#fecf12" r="4.4"/></g></g><g id="change8_2"><path d="M50.6,14.6c0.5-1.5-0.5-2.9-2-2.9c-0.8,0-1.5,0.4-1.9,1.1c-1.3-0.6-2.8,0.3-3,1.7c-0.7,0.2-1.2,0.8-1.2,1.6 c0,0.9,0.7,1.6,1.6,1.6h5.7c0.9,0,1.6-0.7,1.6-1.6C51.5,15.4,51.1,14.9,50.6,14.6z" fill="#fff"/></g><g id="change8_3"><path d="M40.4,22.8c0.5-1.5-0.5-2.9-2-2.9c-0.8,0-1.5,0.4-1.9,1.1c-1.3-0.6-2.8,0.3-3,1.7c-0.7,0.2-1.2,0.8-1.2,1.6 c0,0.9,0.7,1.6,1.6,1.6h5.7c0.9,0,1.6-0.7,1.6-1.6C41.3,23.6,40.9,23,40.4,22.8z" fill="#fff"/></g></g><g fill="#fff" id="change8_1"><path d="M42.2,32.9c-0.3-0.3-0.8-0.2-1.1,0.1l-6.9,9c-0.3,0.3-0.2,0.8,0.1,1.1c0.3,0.3,0.8,0.2,1.1-0.1l6.9-9 C42.6,33.7,42.5,33.2,42.2,32.9z"/><path d="M32.4,44.5l-1,1.3c-0.3,0.3-0.2,0.8,0.1,1.1c0.3,0.3,0.8,0.2,1.1-0.1l1-1.3c0.3-0.3,0.2-0.8-0.1-1.1 C33.1,44.1,32.7,44.2,32.4,44.5z"/></g></g></g></svg>